<?xml version="1.0" encoding="utf-8"?>
<!-- cofi.ai wordmark from the platform repo, recoloured white for this dark background. -->
<svg version="1.1" id="Capa_1" xmlns="http://www.w3.org/2000/svg" xmlns:xlink="http://www.w3.org/1999/xlink" x="0px" y="0px"
	 viewBox="0 0 993.15 350.78" style="enable-background:new 0 0 993.15 350.78;" xml:space="preserve">
<style type="text/css">
	.st0{fill:#FFFFFF;}
</style>
<g>
	<path class="st0" d="M126.75,345.44c0.35,0,0.7,0,1.05-0.01c-0.34,0.02-0.67,0.03-1.01,0.03c-51,0.59-94.39-29.96-113.58-73.97
		C32.44,315.24,75.79,345.44,126.75,345.44z"/>
	<path class="st0" d="M125.17,150.92c6.06,0,11.96,0.94,17.52,2.79c-5.55-1.84-11.44-2.77-17.49-2.77
		c-31.21,0-57.9,24.43-57.9,69.21c0,27.99,10.43,48.21,25.87,59.44c-15.47-11.21-25.91-31.44-25.91-59.46
		C67.26,175.35,93.95,150.92,125.17,150.92z"/>
	<path class="st0" d="M173.27,112.3l-15.08,39.35c-1.45,3.8-5.6,5.72-9.35,4.46c3.74,1.23,7.87-0.7,9.31-4.48l15.08-39.35
		c1.29-3.35,0.02-7.06-2.83-8.97C173.27,105.2,174.57,108.93,173.27,112.3z"/>
	<path class="st0" d="M260.35,267.17c-3.16-4.52-10.02-4.07-12.7,0.79l-20.22,36.17l20.26-37.08c2.68-4.86,9.54-5.32,12.7-0.79
		c9.73,13.96,24.1,21.99,39.96,23.39C284.47,288.41,270.09,281.14,260.35,267.17z"/>
	<path class="st0" d="M247.5,220.19c0,0.07-0.01,0.17-0.04,0.29v-0.31c0-0.01,0-0.04,0-0.04c0-44.75,26.66-69.17,57.87-69.17
		c6.35,0,12.52,1.01,18.31,3.01c-5.78-1.98-11.93-2.99-18.27-2.99c-31.22,0-57.87,24.42-57.87,69.17
		C247.5,220.15,247.5,220.18,247.5,220.19z"/>
	<path class="st0" d="M287.99,344.33c-8.01-1.09-15.73-2.91-23.08-5.42c7.34,2.49,15.05,4.32,23.04,5.4
		c77.89,10.56,145.03-55.3,139.64-133.75c-2.69-39.1-21.7-72.56-50.7-93.29c29.02,20.72,48.05,54.19,50.73,93.31
		C433.02,289.03,365.87,354.89,287.99,344.33z"/>
	<path class="st0" d="M287.95,344.31c-7.99-1.08-15.7-2.91-23.04-5.4c-11.38-3.86-21.9-9.33-31.35-16.18
		c-2.23-1.61-4.39-3.29-6.49-5.05c-2.79-2.34-3.58-6.3-1.85-9.5l2.21-4.05l20.22-36.17c2.68-4.86,9.54-5.31,12.7-0.79
		c9.74,13.97,24.12,21.24,40,22.48c0.15,0.01,0.3,0.02,0.44,0.03c1.52,0.12,3.04,0.18,4.58,0.18c31.21,0,57.9-24.88,57.9-69.67
		c0-28.02-10.44-48.07-25.91-59.14c-4.23-3.04-8.84-5.41-13.72-7.08c-5.79-2-11.96-3.01-18.31-3.01
		c-31.21,0-57.87,24.42-57.87,69.17c0,0,0,0.03,0,0.04v0.31c-0.12,31.3-17.9,124.32-119.66,124.95c-0.35,0.01-0.7,0.01-1.05,0.01
		c-50.96,0-94.31-30.2-113.54-73.95c-0.4-0.91-0.79-1.83-1.17-2.75c-0.38-0.92-0.75-1.85-1.1-2.79c-0.29-0.74-0.56-1.48-0.82-2.23
		c-0.13-0.34-0.25-0.68-0.37-1.02c-4.26-12.18-6.72-25.25-7.07-38.85C0.8,151.5,53.88,94.84,125.2,94.84
		c14.6,0,28.4,2.39,41.13,6.78c0.83,0.29,1.66,0.58,2.49,0.89c0.57,0.21,1.1,0.48,1.58,0.8c2.85,1.91,4.12,5.62,2.83,8.97
		l-15.08,39.35c-1.44,3.78-5.57,5.71-9.31,4.48c-0.25-0.08-0.5-0.18-0.75-0.29c-1.76-0.8-3.56-1.51-5.4-2.11
		c-5.56-1.85-11.46-2.79-17.52-2.79c-31.22,0-57.91,24.43-57.91,69.21c0,28.02,10.44,48.25,25.91,59.46
		c3.09,2.25,6.37,4.13,9.82,5.64c0.84,0.38,1.7,0.73,2.57,1.05c0.02,0.01,0.03,0.01,0.04,0.02c6.16,2.33,12.77,3.52,19.6,3.52
		c29.75,0,57.33-22.52,57.72-63.48c0.02-2-0.04-4.07-0.04-6.15c0-70.57,52.41-125.31,122.49-125.31c14.64,0,28.51,2.38,41.29,6.8
		c10.93,3.78,21.08,9.05,30.23,15.59c29,20.73,48.01,54.19,50.7,93.29C432.98,289.01,365.84,354.87,287.95,344.31z"/>
	<path class="st0" d="M2.68,223.85c0.35,13.6,2.81,26.67,7.07,38.85c-4.29-12.17-6.75-25.23-7.1-38.87
		C0.76,151.48,53.84,94.82,125.17,94.82c14.61,0,28.42,2.4,41.16,6.8c-12.73-4.39-26.53-6.78-41.13-6.78
		C53.88,94.84,0.8,151.5,2.68,223.85z"/>
	<path class="st0" d="M227.07,317.68c2.1,1.76,4.26,3.44,6.49,5.05c-2.24-1.61-4.42-3.3-6.53-5.07c-2.79-2.34-3.58-6.3-1.85-9.5
		l2.25-4.03l-2.21,4.05C223.49,311.38,224.28,315.34,227.07,317.68z"/>
	<path class="st0" d="M182.88,220.19c0,2.08,0.06,4.15,0.04,6.15c-0.39,40.96-27.97,63.48-57.72,63.48c-6.83,0-13.44-1.19-19.6-3.52
		c6.16,2.31,12.76,3.5,19.57,3.5c29.74,0,57.32-22.52,57.71-63.48c0.02-2-0.03-4.07-0.03-6.15c0-70.57,52.4-125.31,122.48-125.31
		c14.65,0,28.54,2.39,41.33,6.82c-12.78-4.42-26.65-6.8-41.29-6.8C235.29,94.88,182.88,149.62,182.88,220.19z"/>
	<path class="st0" d="M363.27,220.19c0,44.79-26.69,69.67-57.9,69.67c-1.54,0-3.06-0.06-4.58-0.18c1.5,0.11,3.02,0.16,4.54,0.16
		c31.21,0,57.9-24.88,57.9-69.67c0-27.99-10.43-48.03-25.87-59.12C352.83,172.12,363.27,192.17,363.27,220.19z"/>
	<g>
		<g>
			<path class="st0" d="M613.72,106.9v226.36c0,4.16-3.37,7.54-7.54,7.54h-47.33c-4.16,0-7.54-3.37-7.54-7.54V153.18h-23.36v180.09
				c0,4.16-3.37,7.54-7.54,7.54h-47.33c-4.14,0-7.54-3.35-7.54-7.54V153.18h-41.3c-4.15,0-7.54-3.39-7.54-7.54V106.9
				c0-4.18,3.39-7.54,7.54-7.54h41.3V86.25c0-47.93,25.78-75.06,75.97-75.06c13.15,0,38.51,2,52.04,5.39
				c3.35,0.87,5.69,3.88,5.69,7.31l0,35.01c0,4.53-3.97,8.07-8.46,7.46c-11.08-1.51-28.24-2.26-34.35-2.26
				c-17.18,0-28.49,6.78-28.49,23.51v11.76h78.23C610.34,99.37,613.72,102.74,613.72,106.9z"/>
			<path class="st0" d="M659.92,343.07c-23.72-0.23-41.99-18.78-41.99-42.5c0-25.32,17.64-42.95,42.51-42.95
				c24.87,0,42.05,17.63,42.05,42.96C702.49,325.61,685.07,343.32,659.92,343.07z"/>
			<path class="st0" d="M973.06,99.37h-47.78c-4.18,0-7.54,3.35-7.54,7.54c0,0,0,0,0,169.27c0,3.31-5.3,3.31-5.31,0
				c0-87.27,0-87.27,0-87.27c0-59.24-37.04-94.06-100.35-94.06c-55.32,0-94.36,32.48-101.37,83.24c-0.6,4.52,2.98,8.55,7.5,8.55
				h41.6c3.66,0,6.75-2.68,7.39-6.26c4.15-23.33,19.9-36.7,44.88-36.7c26.23,0,41.6,15.83,41.6,42.96v14.47
				c-14.92-1.81-26.68-2.71-40.25-2.71c-70.54,0-108.53,25.32-108.53,72.31c0,45.22,33.46,74.61,83.66,74.61
				c33.01,0,56.98-11.76,72.77-34.37v22.31c0,4.18,3.39,7.54,7.54,7.54h74.05c20.8,0,37.68-16.84,37.68-37.68V106.9
				C980.6,102.72,977.21,99.37,973.06,99.37z M853.68,256.24c0,28.04-19.44,45.67-51.55,45.67c-23.51,0-37.98-12.66-37.98-33.01
				c0-21.67,17.64-32.97,53.36-32.97c10.85,0,21.25,0.9,36.18,3.13V256.24z"/>
			<path class="st0" d="M948.49,5.31c-24.42,0-41.6,15.83-41.6,37.98c0,21.25,17.18,37.08,41.6,37.08
				c24.87,0,42.05-15.83,42.05-37.08C990.55,21.14,973.37,5.31,948.49,5.31z"/>
		</g>
	</g>
</g>
</svg>
