<svg xmlns="http://www.w3.org/2000/svg" xmlns:xlink="http://www.w3.org/1999/xlink" width="500" zoomAndPan="magnify" viewBox="0 0 375 374.999991" height="500" preserveAspectRatio="xMidYMid meet" version="1.0"><defs><clipPath id="210f68ce8e"><path d="M 249.441406 112.050781 L 336.332031 112.050781 L 336.332031 262.050781 L 249.441406 262.050781 Z M 249.441406 112.050781 " clip-rule="nonzero"/></clipPath><clipPath id="324ad0bbdf"><path d="M 38.417969 112.050781 L 125.308594 112.050781 L 125.308594 262.050781 L 38.417969 262.050781 Z M 38.417969 112.050781 " clip-rule="nonzero"/></clipPath><clipPath id="c20f198499"><path d="M 138.4375 112.050781 L 235.421875 112.050781 L 235.421875 145.292969 L 138.4375 145.292969 Z M 138.4375 145.292969 L 173.679688 145.292969 L 173.679688 169.222656 L 138.4375 169.222656 Z M 138.4375 169.222656 L 226.625 169.222656 L 226.625 202.464844 L 138.4375 202.464844 Z M 138.4375 202.464844 L 173.679688 202.464844 L 173.679688 229.824219 L 138.4375 229.824219 Z M 138.4375 229.824219 L 236.5625 229.824219 L 236.5625 262.949219 L 138.4375 262.949219 Z M 138.4375 229.824219 " clip-rule="nonzero"/></clipPath></defs><g clip-path="url(#210f68ce8e)"><path fill="#38b6ff" d="M 252.929688 258.5625 C 248.28125 253.914062 248.28125 246.375 252.929688 241.742188 L 307.609375 187.035156 L 252.929688 132.359375 L 252.929688 132.371094 C 248.28125 127.722656 248.28125 120.1875 252.929688 115.539062 C 257.5625 110.890625 265.101562 110.890625 269.75 115.539062 L 332.84375 178.632812 C 335.066406 180.84375 336.332031 183.921875 336.332031 187.050781 C 336.332031 190.179688 335.066406 193.242188 332.84375 195.464844 L 269.75 258.574219 C 267.429688 260.890625 264.382812 262.050781 261.347656 262.050781 C 258.296875 262.050781 255.246094 260.890625 252.929688 258.5625 " fill-opacity="1" fill-rule="nonzero"/></g><g clip-path="url(#324ad0bbdf)"><path fill="#38b6ff" d="M 121.820312 258.5625 C 126.46875 253.914062 126.46875 246.375 121.820312 241.742188 L 67.140625 187.035156 L 121.820312 132.359375 L 121.820312 132.371094 C 126.46875 127.722656 126.46875 120.1875 121.820312 115.539062 C 117.1875 110.890625 109.648438 110.890625 105 115.539062 L 41.90625 178.632812 C 39.683594 180.84375 38.417969 183.921875 38.417969 187.050781 C 38.417969 190.179688 39.683594 193.242188 41.90625 195.464844 L 105 258.574219 C 107.320312 260.890625 110.367188 262.050781 113.40625 262.050781 C 116.453125 262.050781 119.503906 260.890625 121.820312 258.5625 " fill-opacity="1" fill-rule="nonzero"/></g><g clip-path="url(#c20f198499)"><path fill="#38b6ff" d="M 138.4375 112.050781 L 236.5625 112.050781 L 236.5625 263.070312 L 138.4375 263.070312 Z M 138.4375 112.050781 " fill-opacity="1" fill-rule="nonzero"/></g></svg>